<mxfile host="app.diagrams.net" modified="2020-11-04T07:56:31.217Z" agent="5.0 (Macintosh; Intel Mac OS X 10_15_6) AppleWebKit/537.36 (KHTML, like Gecko) Chrome/86.0.4240.111 Safari/537.36" etag="_b-NHVIf02ngUkaLA829" version="13.8.7" type="github">
  <diagram id="kgpKYQtTHZ0yAKxKKP6v" name="Page-1">
    <mxGraphModel dx="2066" dy="1163" grid="1" gridSize="10" guides="1" tooltips="1" connect="1" arrows="1" fold="1" page="1" pageScale="1" pageWidth="850" pageHeight="1100" math="0" shadow="0">
      <root>
        <mxCell id="0" />
        <mxCell id="1" parent="0" />
        <mxCell id="3nuBFxr9cyL0pnOWT2aG-1" value="Web Site" style="shape=umlLifeline;perimeter=lifelinePerimeter;container=1;collapsible=0;recursiveResize=0;rounded=0;shadow=0;strokeWidth=1;" parent="1" vertex="1">
          <mxGeometry x="190" y="100" width="100" height="300" as="geometry" />
        </mxCell>
        <mxCell id="3nuBFxr9cyL0pnOWT2aG-2" value="" style="points=[];perimeter=orthogonalPerimeter;rounded=0;shadow=0;strokeWidth=1;" parent="3nuBFxr9cyL0pnOWT2aG-1" vertex="1">
          <mxGeometry x="45" y="70" width="10" height="70" as="geometry" />
        </mxCell>
        <mxCell id="3nuBFxr9cyL0pnOWT2aG-5" value="Web Server" style="shape=umlLifeline;perimeter=lifelinePerimeter;container=1;collapsible=0;recursiveResize=0;rounded=0;shadow=0;strokeWidth=1;" parent="1" vertex="1">
          <mxGeometry x="370" y="100" width="100" height="300" as="geometry" />
        </mxCell>
        <mxCell id="3nuBFxr9cyL0pnOWT2aG-6" value="" style="points=[];perimeter=orthogonalPerimeter;rounded=0;shadow=0;strokeWidth=1;" parent="3nuBFxr9cyL0pnOWT2aG-5" vertex="1">
          <mxGeometry x="45" y="80" width="10" height="60" as="geometry" />
        </mxCell>
        <mxCell id="RUXs5ar9ATp_TrsIGJyi-2" value="" style="points=[];perimeter=orthogonalPerimeter;rounded=0;shadow=0;strokeWidth=1;" vertex="1" parent="3nuBFxr9cyL0pnOWT2aG-5">
          <mxGeometry x="45" y="160" width="10" height="70" as="geometry" />
        </mxCell>
        <mxCell id="RUXs5ar9ATp_TrsIGJyi-3" value="Unsubscribe from email" style="verticalAlign=bottom;startArrow=none;endArrow=block;startSize=8;shadow=0;strokeWidth=1;exitX=1.3;exitY=0.582;exitDx=0;exitDy=0;exitPerimeter=0;entryX=0.1;entryY=0.143;entryDx=0;entryDy=0;entryPerimeter=0;startFill=0;" edge="1" parent="1" source="RUXs5ar9ATp_TrsIGJyi-23" target="RUXs5ar9ATp_TrsIGJyi-2">
          <mxGeometry relative="1" as="geometry">
            <mxPoint x="130" y="270" as="sourcePoint" />
            <mxPoint x="410" y="269" as="targetPoint" />
          </mxGeometry>
        </mxCell>
        <mxCell id="RUXs5ar9ATp_TrsIGJyi-13" value="Subscriber" style="shape=umlLifeline;participant=umlActor;perimeter=lifelinePerimeter;whiteSpace=wrap;html=1;container=1;collapsible=0;recursiveResize=0;verticalAlign=top;spacingTop=36;outlineConnect=0;" vertex="1" parent="1">
          <mxGeometry x="70" y="80" width="20" height="320" as="geometry" />
        </mxCell>
        <mxCell id="RUXs5ar9ATp_TrsIGJyi-23" value="" style="points=[];perimeter=orthogonalPerimeter;rounded=0;shadow=0;strokeWidth=1;" vertex="1" parent="RUXs5ar9ATp_TrsIGJyi-13">
          <mxGeometry x="5" y="90" width="10" height="170" as="geometry" />
        </mxCell>
        <mxCell id="3nuBFxr9cyL0pnOWT2aG-3" value="Subscribe" style="verticalAlign=bottom;startArrow=none;endArrow=block;shadow=0;strokeWidth=1;startFill=0;" parent="1" target="3nuBFxr9cyL0pnOWT2aG-2" edge="1">
          <mxGeometry relative="1" as="geometry">
            <mxPoint x="90" y="180" as="sourcePoint" />
            <Array as="points">
              <mxPoint x="150" y="180" />
            </Array>
          </mxGeometry>
        </mxCell>
        <mxCell id="RUXs5ar9ATp_TrsIGJyi-15" value="Marketing&lt;br&gt;" style="shape=umlLifeline;participant=umlActor;perimeter=lifelinePerimeter;whiteSpace=wrap;html=1;container=1;collapsible=0;recursiveResize=0;verticalAlign=top;spacingTop=36;outlineConnect=0;" vertex="1" parent="1">
          <mxGeometry x="120" y="490" width="20" height="260" as="geometry" />
        </mxCell>
        <mxCell id="RUXs5ar9ATp_TrsIGJyi-32" value="" style="points=[];perimeter=orthogonalPerimeter;rounded=0;shadow=0;strokeWidth=1;" vertex="1" parent="RUXs5ar9ATp_TrsIGJyi-15">
          <mxGeometry x="5" y="70" width="10" height="130" as="geometry" />
        </mxCell>
        <mxCell id="RUXs5ar9ATp_TrsIGJyi-16" value="Mail Group API" style="shape=umlLifeline;perimeter=lifelinePerimeter;container=1;collapsible=0;recursiveResize=0;rounded=0;shadow=0;strokeWidth=1;" vertex="1" parent="1">
          <mxGeometry x="550" y="100" width="100" height="300" as="geometry" />
        </mxCell>
        <mxCell id="RUXs5ar9ATp_TrsIGJyi-17" value="" style="points=[];perimeter=orthogonalPerimeter;rounded=0;shadow=0;strokeWidth=1;" vertex="1" parent="RUXs5ar9ATp_TrsIGJyi-16">
          <mxGeometry x="45" y="70" width="10" height="70" as="geometry" />
        </mxCell>
        <mxCell id="RUXs5ar9ATp_TrsIGJyi-18" value="" style="points=[];perimeter=orthogonalPerimeter;rounded=0;shadow=0;strokeWidth=1;" vertex="1" parent="RUXs5ar9ATp_TrsIGJyi-16">
          <mxGeometry x="45" y="160" width="10" height="70" as="geometry" />
        </mxCell>
        <mxCell id="RUXs5ar9ATp_TrsIGJyi-22" value="Add to mail group" style="verticalAlign=bottom;endArrow=block;entryX=0;entryY=0;shadow=0;strokeWidth=1;" edge="1" parent="1">
          <mxGeometry relative="1" as="geometry">
            <mxPoint x="425" y="200" as="sourcePoint" />
            <mxPoint x="595" y="200" as="targetPoint" />
          </mxGeometry>
        </mxCell>
        <mxCell id="RUXs5ar9ATp_TrsIGJyi-24" value="Remove from mail group" style="verticalAlign=bottom;endArrow=block;entryX=0;entryY=0.129;shadow=0;strokeWidth=1;entryDx=0;entryDy=0;entryPerimeter=0;" edge="1" parent="1">
          <mxGeometry x="-0.0303" y="10" relative="1" as="geometry">
            <mxPoint x="427.5" y="281" as="sourcePoint" />
            <mxPoint x="592.5" y="280.03" as="targetPoint" />
            <mxPoint as="offset" />
            <Array as="points">
              <mxPoint x="507.5" y="280" />
            </Array>
          </mxGeometry>
        </mxCell>
        <mxCell id="RUXs5ar9ATp_TrsIGJyi-25" value="Add to mail group" style="verticalAlign=bottom;endArrow=block;shadow=0;strokeWidth=1;" edge="1" parent="1">
          <mxGeometry relative="1" as="geometry">
            <mxPoint x="250" y="190" as="sourcePoint" />
            <mxPoint x="415" y="190" as="targetPoint" />
            <Array as="points">
              <mxPoint x="365" y="190" />
            </Array>
          </mxGeometry>
        </mxCell>
        <mxCell id="RUXs5ar9ATp_TrsIGJyi-26" value="Mail Server" style="shape=umlLifeline;perimeter=lifelinePerimeter;container=1;collapsible=0;recursiveResize=0;rounded=0;shadow=0;strokeWidth=1;" vertex="1" parent="1">
          <mxGeometry x="240" y="490" width="100" height="260" as="geometry" />
        </mxCell>
        <mxCell id="RUXs5ar9ATp_TrsIGJyi-27" value="" style="points=[];perimeter=orthogonalPerimeter;rounded=0;shadow=0;strokeWidth=1;" vertex="1" parent="RUXs5ar9ATp_TrsIGJyi-26">
          <mxGeometry x="45" y="70" width="10" height="130" as="geometry" />
        </mxCell>
        <mxCell id="RUXs5ar9ATp_TrsIGJyi-30" value="Many subscribers" style="shape=umlLifeline;participant=umlActor;perimeter=lifelinePerimeter;whiteSpace=wrap;html=1;container=1;collapsible=0;recursiveResize=0;verticalAlign=top;spacingTop=36;outlineConnect=0;" vertex="1" parent="1">
          <mxGeometry x="480" y="490" width="20" height="260" as="geometry" />
        </mxCell>
        <mxCell id="RUXs5ar9ATp_TrsIGJyi-31" value="" style="points=[];perimeter=orthogonalPerimeter;rounded=0;shadow=0;strokeWidth=1;" vertex="1" parent="RUXs5ar9ATp_TrsIGJyi-30">
          <mxGeometry x="5" y="80" width="10" height="120" as="geometry" />
        </mxCell>
        <mxCell id="RUXs5ar9ATp_TrsIGJyi-33" value="Send Marketing email" style="edgeStyle=orthogonalEdgeStyle;rounded=0;orthogonalLoop=1;jettySize=auto;html=1;startArrow=none;startFill=0;" edge="1" parent="1" source="RUXs5ar9ATp_TrsIGJyi-32">
          <mxGeometry relative="1" as="geometry">
            <mxPoint x="280" y="625" as="targetPoint" />
            <Array as="points">
              <mxPoint x="240" y="625" />
              <mxPoint x="240" y="625" />
            </Array>
          </mxGeometry>
        </mxCell>
        <mxCell id="RUXs5ar9ATp_TrsIGJyi-35" value="Dispatch mail to mail group contacts" style="verticalAlign=bottom;startArrow=none;endArrow=block;shadow=0;strokeWidth=1;startFill=0;" edge="1" parent="1" target="RUXs5ar9ATp_TrsIGJyi-30">
          <mxGeometry relative="1" as="geometry">
            <mxPoint x="297.5" y="634.5" as="sourcePoint" />
            <mxPoint x="442.5" y="634.5" as="targetPoint" />
            <Array as="points">
              <mxPoint x="357.5" y="634.5" />
            </Array>
          </mxGeometry>
        </mxCell>
        <mxCell id="RUXs5ar9ATp_TrsIGJyi-36" value="Subscription" style="shape=umlFrame;whiteSpace=wrap;html=1;width=90;height=50;" vertex="1" parent="1">
          <mxGeometry x="20" y="20" width="650" height="380" as="geometry" />
        </mxCell>
        <mxCell id="RUXs5ar9ATp_TrsIGJyi-37" value="Send marketing email" style="shape=umlFrame;whiteSpace=wrap;html=1;width=90;height=50;" vertex="1" parent="1">
          <mxGeometry x="20" y="440" width="570" height="340" as="geometry" />
        </mxCell>
      </root>
    </mxGraphModel>
  </diagram>
</mxfile>
